<svg width="24" height="24" viewBox="0 0 24 24" fill="none" xmlns="http://www.w3.org/2000/svg">
<g id="Outline / Electronic, Devices / Headphones Round" clip-path="url(#clip0_1_32207)">
<circle id="Ellipse 86" cx="12" cy="12" r="12" fill="#3E9B3F" fill-opacity="0.1"/>
<path id="Vector" fill-rule="evenodd" clip-rule="evenodd" d="M10.4696 5H13.5304C14.898 4.99999 15.9813 4.99998 16.829 5.11396C17.7015 5.23127 18.4077 5.47842 18.9647 6.03534C19.5216 6.59227 19.7687 7.29846 19.886 8.17096C20 9.01875 20 10.102 20 11.4696V11.5536C20 12.9212 20 14.0045 19.886 14.8523C19.7687 15.7248 19.5216 16.431 18.9647 16.9879C18.4077 17.5448 17.7015 17.792 16.829 17.9093C15.9813 18.0233 14.898 18.0233 13.5304 18.0233H10.4696C9.10201 18.0233 8.01875 18.0233 7.17096 17.9093C6.29846 17.792 5.59227 17.5448 5.03534 16.9879C4.47842 16.431 4.23127 15.7248 4.11396 14.8523C3.99998 14.0045 3.99999 12.9212 4 11.5536V11.4696C3.99999 10.102 3.99998 9.01875 4.11396 8.17096C4.23127 7.29846 4.47842 6.59227 5.03534 6.03534C5.59227 5.47842 6.29846 5.23127 7.17096 5.11396C8.01875 4.99998 9.10201 4.99999 10.4696 5ZM7.3197 6.22029C6.57098 6.32095 6.13962 6.50973 5.82467 6.82467C5.50973 7.13962 5.32095 7.57098 5.22029 8.3197C5.11746 9.08448 5.11628 10.0926 5.11628 11.5116C5.11628 12.9307 5.11746 13.9388 5.22029 14.7036C5.32095 15.4523 5.50973 15.8836 5.82467 16.1986C6.13962 16.5135 6.57098 16.7023 7.3197 16.803C8.08447 16.9058 9.0926 16.907 10.5116 16.907H13.4884C14.9074 16.907 15.9155 16.9058 16.6803 16.803C17.429 16.7023 17.8604 16.5135 18.1753 16.1986C18.4903 15.8836 18.6791 15.4523 18.7797 14.7036C18.8825 13.9388 18.8837 12.9307 18.8837 11.5116C18.8837 10.0926 18.8825 9.08448 18.7797 8.3197C18.6791 7.57098 18.4903 7.13962 18.1753 6.82467C17.8604 6.50973 17.429 6.32095 16.6803 6.22029C15.9155 6.11746 14.9074 6.11628 13.4884 6.11628H10.5116C9.0926 6.11628 8.08448 6.11746 7.3197 6.22029ZM7.10611 8.17757C7.30345 7.94077 7.65539 7.90877 7.8922 8.10611L9.49882 9.44496C10.1931 10.0235 10.6751 10.4239 11.0821 10.6857C11.4761 10.939 11.7432 11.0241 12 11.0241C12.2568 11.0241 12.5239 10.939 12.9179 10.6857C13.3249 10.4239 13.8069 10.0235 14.5012 9.44496L16.1078 8.10611C16.3446 7.90877 16.6966 7.94077 16.8939 8.17757C17.0912 8.41438 17.0592 8.76632 16.8224 8.96366L15.1878 10.3258C14.5282 10.8755 13.9936 11.3211 13.5217 11.6245C13.0302 11.9407 12.5515 12.1404 12 12.1404C11.4485 12.1404 10.9698 11.9407 10.4783 11.6245C10.0064 11.3211 9.47179 10.8755 8.81218 10.3258L7.17757 8.96366C6.94077 8.76632 6.90877 8.41438 7.10611 8.17757Z" fill="#3E9B3F"/>
</g>
<defs>
<clipPath id="clip0_1_32207">
<rect width="24" height="24" fill="white"/>
</clipPath>
</defs>
</svg>
